<?xml version="1.0" encoding="utf-8"?>
<!-- Generator: Adobe Illustrator 24.0.0, SVG Export Plug-In . SVG Version: 6.00 Build 0)  -->
<svg version="1.1" id="Layer_1" xmlns="http://www.w3.org/2000/svg" xmlns:xlink="http://www.w3.org/1999/xlink" x="0px" y="0px"
	 viewBox="0 0 42 42" style="enable-background:new 0 0 42 42;" xml:space="preserve">
<style type="text/css">
	.st0{fill:#FFFFFF;}
</style>
<g>
	<g>
		<path class="st0" d="M17.39,21.44c0.02,1.24-0.74,2.5-2.46,2.5c-0.6,0-1.33,0-1.93,0v-4.92c0.6,0,1.33,0,1.93,0
			C16.62,19.02,17.37,20.22,17.39,21.44z M13.92,23.04h1.01c1.12,0,1.56-0.82,1.54-1.62c-0.02-0.77-0.47-1.53-1.54-1.53h-1.01V23.04
			z"/>
		<path class="st0" d="M21.45,22.21c0,1-0.68,1.81-1.81,1.81s-1.8-0.81-1.8-1.81c0-0.99,0.69-1.81,1.79-1.81
			C20.74,20.4,21.45,21.22,21.45,22.21z M18.71,22.21c0,0.53,0.32,1.02,0.94,1.02c0.63,0,0.94-0.49,0.94-1.02
			c0-0.52-0.37-1.03-0.94-1.03C19.03,21.18,18.71,21.69,18.71,22.21z"/>
		<path class="st0" d="M25.49,22.21c0,1-0.68,1.81-1.81,1.81c-1.12,0-1.8-0.81-1.8-1.81c0-0.99,0.69-1.81,1.79-1.81
			C24.78,20.4,25.49,21.22,25.49,22.21z M22.74,22.21c0,0.53,0.32,1.02,0.94,1.02c0.63,0,0.94-0.49,0.94-1.02
			c0-0.52-0.37-1.03-0.94-1.03C23.06,21.18,22.74,21.69,22.74,22.21z"/>
		<path class="st0" d="M26.87,20.47l0.06,0.4c0.27-0.43,0.63-0.49,0.98-0.49c0.36,0,0.7,0.14,0.89,0.33l-0.39,0.74
			c-0.18-0.15-0.34-0.22-0.62-0.22c-0.45,0-0.86,0.24-0.86,0.88v1.83h-0.86v-3.46H26.87z"/>
		<path class="st0" d="M32.02,20.32l0.22,0.2l-0.34,0.39c0.25,0.27,0.43,0.62,0.43,1.18c0,0.6-0.36,1.22-0.93,1.48
			c0.61,0.22,0.95,0.65,0.95,1.24c0,0.93-0.73,1.38-1.65,1.38c-0.92,0-1.64-0.51-1.64-1.38h0.34c0,0.71,0.6,1.05,1.3,1.05
			c0.7,0,1.31-0.31,1.31-1.05c0-0.74-0.67-1.04-1.31-1.04c-1,0-1.63-0.75-1.63-1.68c0-1.08,0.73-1.69,1.63-1.69
			c0.35,0,0.72,0.13,0.98,0.32L32.02,20.32z M29.41,22.1c0,0.72,0.49,1.33,1.29,1.33c0.72,0,1.3-0.62,1.3-1.33
			c0-0.88-0.58-1.35-1.3-1.35C29.99,20.75,29.41,21.19,29.41,22.1z"/>
		<path class="st0" d="M32.88,22.21c0-1.1,0.79-1.81,1.76-1.81c0.98,0,1.76,0.7,1.76,1.81c0,1.1-0.79,1.78-1.76,1.78
			C33.67,23.99,32.88,23.31,32.88,22.21z M36.07,22.21c0-0.9-0.64-1.48-1.43-1.48c-0.79,0-1.43,0.58-1.43,1.48s0.64,1.44,1.43,1.44
			C35.43,23.65,36.07,23.11,36.07,22.21z"/>
		<path class="st0" d="M40.54,19.02v4.92H40.2v-0.77c-0.29,0.53-0.86,0.82-1.45,0.82c-0.97,0-1.74-0.64-1.74-1.79
			c0-1.15,0.77-1.79,1.74-1.79c0.6,0,1.16,0.25,1.44,0.82v-2.21H40.54z M37.35,22.2c0,0.96,0.64,1.45,1.42,1.45
			c0.82,0,1.42-0.6,1.42-1.46c0-0.86-0.62-1.45-1.42-1.45C37.99,20.74,37.35,21.22,37.35,22.2z"/>
	</g>
	<g>
		<path class="st0" d="M6.85,21.14C6.91,21.06,7.02,21,7.1,20.96c0.08-0.04,0.14-0.07,0.14-0.07s-0.07,0.02-0.17,0.05
			c-0.1,0.03-0.23,0.08-0.34,0.15c-0.03,0.02-0.05,0.04-0.07,0.07c-0.02,0.02-0.04,0.05-0.05,0.08c-0.01,0.03-0.01,0.06,0,0.08
			c0.01,0.03,0.01,0.05,0.04,0.07c0.01,0.01,0.02,0.02,0.03,0.03l-0.01,0l0.02,0.01c0,0.01,0.01,0.01,0.02,0.02
			c0.02,0.01,0.03,0.02,0.04,0.03c0.02,0.01,0.03,0.02,0.03,0.02c0.16,0.11,0.3,0.25,0.33,0.38c0.01,0.03,0,0.06-0.01,0.09
			c-0.01,0.03-0.04,0.05-0.07,0.08l-0.07,0.04l-0.05,0.02c-0.04,0.01-0.08,0.02-0.13,0.01c-0.09-0.01-0.17-0.06-0.22-0.12
			c-0.02-0.03-0.04-0.06-0.03-0.09c0-0.03,0.02-0.05,0.04-0.07c0.06-0.03,0.08-0.04,0.13-0.04c0.05,0,0.09,0,0.13,0.02
			c0.08,0.04,0.07,0.13-0.02,0.19c0.06-0.02,0.11-0.05,0.14-0.1c0.03-0.05,0.01-0.1-0.04-0.15c-0.05-0.04-0.14-0.06-0.22-0.06
			c-0.08,0-0.17,0.03-0.22,0.05c-0.16,0.08-0.15,0.21-0.09,0.3c0.07,0.09,0.18,0.17,0.34,0.2c0.08,0.02,0.17,0.01,0.25-0.01
			c0.04-0.01,0.08-0.03,0.12-0.04l0.08-0.04c0.06-0.04,0.1-0.08,0.13-0.13c0.03-0.05,0.04-0.11,0.03-0.16
			c-0.01-0.1-0.08-0.19-0.15-0.26c-0.05-0.05-0.11-0.09-0.17-0.14c0.09-0.03,0.17-0.07,0.24-0.13c0.1-0.07,0.18-0.16,0.22-0.25
			c0.08-0.18,0.08-0.37,0.01-0.55c0.02,0.18-0.01,0.36-0.12,0.52c-0.06,0.08-0.14,0.15-0.23,0.2c-0.08,0.05-0.17,0.07-0.26,0.1
			c-0.01,0-0.01-0.01-0.02-0.01c-0.01-0.01-0.01-0.01-0.02-0.02c-0.02-0.02-0.04-0.04-0.03-0.07c-0.01-0.01,0-0.03,0.01-0.05
			C6.83,21.17,6.83,21.15,6.85,21.14z"/>
		<path class="st0" d="M6.49,16.52c-0.36,0-0.71,0.04-1.05,0.11c0.9,0.34,2.62,1.26,2.47,3.32c-0.16,2.2-0.28,2.8-0.32,2.93
			l-0.58,0.2c0-0.12-0.02-0.28-0.15-0.39c-0.06-0.06-0.14-0.09-0.24-0.11c-0.03-0.13-0.16-0.32-0.46-0.36
			c0.07-0.32,0.2-1.53-1.3-2.48c0.13-0.02,0.31-0.04,0.5-0.04c0.27,0,0.49,0.04,0.65,0.11l0.11,0.05c0.06,0.03,0.14,0.07,0.22,0.13
			c0.09,0.06,0.18,0.14,0.24,0.24c0.06,0.09,0.09,0.21,0.03,0.29c-0.03,0.04-0.09,0.07-0.16,0.08c-0.1,0.03-0.15,0.01-0.22,0.01
			l-0.09-0.03l-0.07-0.05c-0.03-0.04-0.07-0.08-0.06-0.12c0-0.02,0-0.04,0-0.06c0.01-0.02,0.02-0.04,0.03-0.05
			c0.01-0.04,0.04-0.06,0.07-0.08c0.05-0.04,0.08-0.06,0.08-0.06s-0.04,0.02-0.1,0.05c-0.04,0.02-0.07,0.04-0.1,0.07
			c-0.04,0.03-0.06,0.07-0.07,0.12c-0.02,0.05,0.01,0.11,0.04,0.16c0.02,0.03,0.05,0.05,0.08,0.08c0.04,0.02,0.08,0.04,0.13,0.06
			c0.1,0.03,0.23,0.03,0.31,0.02c0.11,0,0.22-0.06,0.28-0.12c0.12-0.14,0.07-0.29,0.01-0.4c-0.07-0.12-0.17-0.21-0.26-0.29
			c-0.1-0.07-0.2-0.12-0.27-0.16c-0.02-0.01-0.04-0.02-0.05-0.02c0-0.04,0.01-0.12,0.01-0.21c0.03-0.01,0.07-0.02,0.09-0.04
			c0.05-0.02,0.11-0.06,0.15-0.08c0.05-0.03,0.09-0.07,0.13-0.11c0.06-0.07,0.14-0.16,0.08-0.29c-0.03-0.05-0.13-0.12-0.24-0.12
			c-0.01,0-0.03,0-0.05,0c-0.03,0-0.06,0-0.08,0.01l-0.01,0l-0.02,0c-0.06,0.01-0.09,0.03-0.1,0.03L6.15,18.9c0-0.01,0-0.01,0-0.02
			c0.03-0.01,0.06-0.03,0.1-0.04c0.13-0.07,0.21-0.14,0.27-0.22c0.04-0.06,0.05-0.11,0.05-0.17c-0.01-0.03-0.02-0.07-0.06-0.1
			c-0.03-0.04-0.08-0.05-0.11-0.06l-0.02-0.01l-0.03-0.01c-0.04-0.01-0.08-0.01-0.11-0.01c-0.05,0-0.1,0.01-0.13,0.02
			c0.04-0.03,0.08-0.07,0.1-0.1c0.04-0.04,0.06-0.09,0.06-0.14c0.01-0.02,0-0.06-0.02-0.1c-0.02-0.03-0.03-0.04-0.05-0.06
			l-0.02-0.01l-0.01-0.01l-0.01-0.01c-0.09-0.05-0.18-0.05-0.21-0.05h0l-0.02,0l-0.01,0l-0.01,0c-0.05,0.01-0.09,0.01-0.12,0.02
			c-0.05,0.02-0.08,0.03-0.08,0.03l-0.08,0.04c0.05-0.21,0.11-0.73-0.28-1.23c-2.18,0.52-3.81,2.48-3.81,4.83
			c0,2.74,2.21,4.95,4.95,4.96v-0.51c0.01,0,0.03,0,0.04,0c0.11,0.02,0.22,0.03,0.34,0.03c0.12,0,0.23-0.01,0.33-0.03
			c0.01,0,0.02,0,0.04,0l0,0.46c2.39-0.35,4.23-2.42,4.23-4.91C11.45,18.74,9.23,16.52,6.49,16.52z M6.22,19.21
			c0.03-0.02,0.07-0.04,0.1-0.06c0.03-0.02,0.06-0.04,0.07-0.06c0.02-0.02,0.02-0.04,0.04-0.05c-0.02-0.03,0-0.03-0.03-0.04
			c-0.02-0.01-0.04-0.01-0.07-0.02c-0.05,0-0.08-0.01-0.08-0.01s0.02-0.01,0.07-0.02c0.03,0,0.06-0.01,0.1,0
			c0.04,0,0.1,0.04,0.11,0.06c0.04,0.09-0.01,0.16-0.06,0.22c-0.03,0.03-0.07,0.06-0.11,0.09c-0.04,0.02-0.09,0.06-0.13,0.07
			c-0.04,0.02-0.11,0.04-0.16,0.06c-0.06,0.02-0.11,0.03-0.18,0.03c-0.06,0.01-0.14,0-0.2-0.03c-0.02-0.01-0.03-0.02-0.04-0.03
			c-0.04-0.03-0.01-0.02-0.02-0.03c0-0.01-0.01-0.03-0.01-0.05c0-0.05,0.03-0.07,0.05-0.09c0.02-0.02,0.04-0.03,0.06-0.05
			c0.04-0.02,0.06-0.03,0.06-0.03s-0.01,0.02-0.02,0.05c-0.02,0.02-0.03,0.08-0.02,0.1c-0.01,0,0.01,0.02,0.02,0.03
			c0,0,0.02,0.03,0.01,0c0,0,0.01,0,0.01,0c0.02,0,0.05,0,0.09-0.01c0.04,0,0.08-0.02,0.12-0.03c0.04-0.01,0.07-0.03,0.12-0.05
			C6.15,19.24,6.18,19.23,6.22,19.21z M6.3,18.35c0.03,0.01,0.06,0.02,0.08,0.04c0.01,0.01,0.03,0.03,0.03,0.06
			c0.01,0.05-0.01,0.09-0.04,0.12c-0.05,0.07-0.13,0.13-0.23,0.19c-0.06,0.03-0.09,0.04-0.15,0.06c-0.06,0.02-0.11,0.03-0.17,0.04
			c-0.06,0.01-0.12,0.01-0.18,0.01c-0.06-0.01-0.13-0.03-0.16-0.08c-0.02-0.02-0.01-0.07,0-0.09c0.02-0.02,0.03-0.04,0.05-0.05
			c0.04-0.03,0.06-0.04,0.06-0.04s-0.01,0.02-0.02,0.05c-0.01,0.01,0,0.03-0.01,0.05c0.01,0.02,0,0.02,0.03,0.05
			c0,0,0.03,0.01,0.06,0c0.03,0,0.07-0.01,0.11-0.02c0.04-0.01,0.08-0.03,0.12-0.04c0.03-0.01,0.09-0.04,0.12-0.06
			c0.08-0.04,0.14-0.09,0.19-0.13c0.02-0.02,0.04-0.05,0.05-0.06c0.01,0,0.01-0.01,0-0.02c0.01,0-0.01-0.01-0.01-0.01
			c-0.02-0.01-0.05-0.02-0.08-0.02c-0.03,0-0.06-0.01-0.08,0c-0.05,0-0.08,0-0.08,0s0.02-0.01,0.06-0.03
			C6.11,18.36,6.19,18.33,6.3,18.35z M5.2,18.26c0.02-0.02,0.03-0.04,0.05-0.05c0.03-0.02,0.05-0.04,0.05-0.04s0,0.02-0.01,0.05
			c0,0.01,0,0.03,0,0.05c0.01,0.01,0.01,0.02,0.04,0.05c0-0.01,0.03,0,0.06-0.01c0.03,0,0.07-0.01,0.1-0.02
			c0.04-0.01,0.08-0.03,0.11-0.04c0.03-0.01,0.08-0.04,0.11-0.05c0.07-0.04,0.14-0.08,0.19-0.12c0.02-0.02,0.05-0.04,0.06-0.06
			c0.01-0.01,0.01-0.01,0.01-0.02c0.01,0-0.02-0.03,0-0.02c-0.01-0.01-0.03-0.02-0.05-0.03c-0.03,0-0.05-0.01-0.07-0.01
			c-0.05,0-0.08,0-0.08,0s0.02-0.01,0.06-0.03c0.02-0.01,0.05-0.01,0.09-0.02c0.04,0,0.09,0,0.14,0.03
			c0.03,0.03,0.03,0.02,0.04,0.05c0.01,0.02,0.02,0.05,0.01,0.07c0,0.04-0.02,0.08-0.05,0.11c-0.05,0.07-0.13,0.12-0.22,0.17
			c-0.05,0.02-0.09,0.04-0.15,0.06c-0.05,0.02-0.11,0.03-0.16,0.04c-0.06,0.01-0.11,0.01-0.17,0.01c-0.06-0.01-0.12-0.02-0.17-0.07
			C5.19,18.32,5.19,18.29,5.2,18.26z M5.47,22.85c0.03-0.18,0.24-0.35,0.61-0.5c0.29,0.01,0.34,0.23,0.34,0.27
			c0,0.01-0.01,0.02-0.02,0.03c-0.03,0.03-0.08,0.07-0.16,0.11c-0.07,0.03-0.16,0.06-0.23,0.07c-0.07,0.01-0.11,0.02-0.11,0.02
			s0.05,0,0.12,0c0.07,0,0.17-0.01,0.27-0.03c0.1-0.02,0.19-0.05,0.26-0.09c0.01-0.01,0.02-0.01,0.03-0.02
			c0.05,0.01,0.09,0.03,0.12,0.05c0.12,0.11,0.11,0.32,0.09,0.41c-0.02,0.01-0.03,0.02-0.06,0.04c-0.03,0.02-0.06,0.05-0.08,0.09
			c-0.02,0.04-0.06,0.07-0.07,0.11c-0.01,0.04-0.03,0.07-0.04,0.11c-0.01,0.03,0,0.07-0.01,0.09c0,0.05,0,0.09,0,0.09
			s0.01-0.03,0.03-0.09c0.01-0.03,0.02-0.06,0.04-0.08c0.02-0.03,0.05-0.06,0.07-0.09c0.02-0.03,0.06-0.05,0.09-0.07
			c0.03-0.02,0.05-0.04,0.09-0.06c0.04-0.02,0.07-0.03,0.09-0.04l0.65-0.23v1H6.12v-0.25c0-0.25-0.22-0.42-0.43-0.55
			C5.57,23.16,5.44,23.02,5.47,22.85z M7.42,25.67c0,0.02-0.04,0.05-0.13,0.08c-0.16,0.05-0.44,0.06-0.67,0.04
			c-0.08-0.01-0.15-0.02-0.21-0.04c-0.09-0.03-0.13-0.06-0.13-0.08v-0.6h1.15V25.67z M8.04,24.65L7.5,24.92H6.2l-0.54-0.27
			c-0.04-0.02-0.07-0.05-0.07-0.08c0-0.03,0.01-0.06,0.05-0.09l0.41-0.29h1.59l0.41,0.29c0.04,0.03,0.05,0.06,0.05,0.09
			C8.11,24.6,8.08,24.63,8.04,24.65z"/>
	</g>
</g>
</svg>
