<?xml version="1.0" encoding="utf-8"?>
<!-- Generator: Adobe Illustrator 17.0.0, SVG Export Plug-In . SVG Version: 6.00 Build 0)  -->
<!DOCTYPE svg PUBLIC "-//W3C//DTD SVG 1.1//EN" "http://www.w3.org/Graphics/SVG/1.1/DTD/svg11.dtd">
<svg version="1.1" id="Layer_1" xmlns="http://www.w3.org/2000/svg" xmlns:xlink="http://www.w3.org/1999/xlink" x="0px" y="0px"
	 width="2000px" height="2000px" viewBox="0 0 2000 2000" enable-background="new 0 0 2000 2000" xml:space="preserve">
<g>
	<path d="M1069.8,935.508c11.595-14.177,32.384-26.872,48.089-35.142c16.283-8.433,27.129-14.054,27.129-14.054
		s-12.719,3.777-31.805,9.422c-18.992,5.897-44.46,14.583-65.593,29.438c-6.048,3.119-9.892,7.924-14.047,12.571
		c-4.55,4.508-8.179,9.363-8.928,15.156c-1.434,5.566-2.398,10.979,0.128,16.051c1.874,5.087,2.815,10.109,7.119,14.059
		c1.767,1.849,3.191,3.342,4.817,5.042l-0.984,0.292l3.811,2.655c0.942,0.974,2.054,2.15,2.931,3.06
		c3.02,1.918,5.653,3.589,7.828,4.963c4.249,2.62,6.54,4.024,6.691,4.123c30.318,21.113,58.067,48.771,63.354,73.878
		c1.456,6.293,0.022,12.017-2.205,17.45c-2.825,5.329-7.944,10.04-14.239,14.603l-12.717,6.777l-10.309,3.5
		c-7.986,1.552-16.113,3.154-24.42,1.631c-16.904-1.483-33.187-11.291-42.587-22.324c-4.088-5.729-6.903-11.805-6.701-17.406
		c0.183-5.265,4.763-10.302,8.381-13.046c11.048-5.823,15.814-7.346,25.532-8.621c8.802-0.924,17.43,0.855,24.87,4.212
		c15.824,7.109,13.896,24.381-3.146,36.798c11.142-3.698,21.368-9.778,26.709-18.552c4.807-8.779,2.291-20.016-7.88-27.895
		c-9.677-8.241-26.281-12.358-42.009-12.255c-15.018-0.396-33.358,5.314-41.868,9.14c-30.928,15.453-28.348,40.881-16.595,57.615
		c12.601,16.985,34.109,32.76,66.246,37.881c15.695,3.154,32.888,1.612,48.282-1.305c7.645-1.958,15.782-4.864,22.46-7.514
		l16.039-8.325c10.801-7.099,20.156-15.413,25.789-25.29c4.988-9.857,7.086-20.248,5.373-29.873
		c-2.741-19.482-14.731-36.052-28.531-50.793c-9.217-9.728-20.866-17.915-31.944-26.432c17.116-6.654,33.496-14.009,46.235-24.099
		c19.175-14.267,33.682-30.817,41.796-48.282c16.068-34.969,14.687-71.199,2.815-104.992c4.795,34.435-2.056,69.741-23.263,99.856
		c-10.608,15.057-26.313,27.96-44.502,38.271c-14.42,8.834-32.557,14.029-50.776,18.607c-1.458-0.88-2.721-1.646-4.434-2.674
		c-1.219-1.394-2.739-2.842-4.773-4.375c-3.149-3.188-7.571-8.285-6.308-13.891c-1.144-2.847-0.299-6.095,1.745-9.471
		C1064.94,942.577,1065.731,938.77,1069.8,935.508z"/>
	<path d="M1000.274,47.347c-69.318,0-136.837,7.583-201.953,21.632c173.615,64.96,503.803,241.364,475.493,637.059
		c-30.145,422.236-54.127,537.88-60.722,563.106l-111.507,39.349c0.685-22.561-3.512-54.184-28.007-75.856
		c-11.904-10.613-27.149-17.895-45.563-21.785c-6.594-25.784-30.575-61.297-87.957-69.409
		c12.677-61.406,37.686-293.14-250.506-476.474c24.492-3.717,59.179-7.662,96.178-7.662c51.216,0,93.35,7.385,125.383,21.948
		l20.757,9.417c11.53,5.724,26.39,13.866,43.089,25.933c16.98,11.642,34.559,27.02,46.131,45.237
		c11.669,17.761,17.472,39.972,4.936,55.247c-5.974,7.227-16.489,13.248-30.031,14.573c-19.151,4.924-29.193,2.432-41.408,1.256
		l-17.836-6.14l-13.06-9.729c-5.514-7.178-13.115-15.107-11.315-22.947c0.148-3.871-0.601-7.781,0.116-11.375
		c1.928-3.475,3.747-6.767,5.46-9.862c2.313-6.782,7.558-11.656,12.944-15.275c9.818-7.909,15.426-12.428,15.426-12.428
		s-6.958,3.742-19.131,10.292c-6.755,3.099-13.896,7.435-18.787,14.38c-7.034,6.273-12.151,14.133-12.591,23.99
		c-3.853,9.521,2.207,20.198,8.018,30.659c4.701,4.815,10,9.758,15.705,14.622c7.924,3.48,16.026,7.039,24.259,10.648
		c19.558,4.894,44.834,6.308,59.481,2.966c22.062-0.87,42.597-11.291,54.233-23.812c22.717-26.511,13.681-54.767,1.809-76.696
		c-12.601-22.502-31.892-40.867-50.679-55.029c-18.713-13.92-38.701-24.005-52.125-30.426c-4.38-1.913-7.121-3.104-10.161-4.439
		c0.707-8.28,1.552-22.611,1.456-40.802c6.36-2.318,12.504-4.78,17.418-6.891c9.538-4.345,21.069-10.86,29.581-16.17
		c9.368-6.234,17.482-12.961,24.739-20.416c11.058-12.793,26.647-30.926,15.332-56.463c-5.44-9.981-25.181-22.967-45.264-23.441
		c-2.87-0.287-5.781-0.425-8.693-0.425c-5.813,0-10.92,0.583-15.352,1.157l-2.012,0.267l-4.753,0.821
		c-11.016,2.645-17.43,5.195-18.597,5.68l-5.897,2.437c-0.311-1.29-0.61-2.575-0.932-3.881c5.823-2.437,11.466-5.003,18.787-8.572
		c24.217-13.199,41.185-27.253,51.547-42.35c7.6-10.796,10.428-20.787,9.059-32.231c-1.018-5.472-3.631-13.901-10.92-20.129
		c-6.659-7.277-15.834-10.332-20.972-12.037l-3.49-1.592l-5.717-1.33c-7.282-1.424-14.657-2.136-21.904-2.136
		c-10.267,0-18.575,1.414-25.532,3.095c8.157-6.421,14.783-12.966,19.944-19.719c7.067-8.33,11.296-17.796,12.096-27.539
		c1.275-3.925,0.225-11.785-3.188-18.938c-3.052-5.522-4.882-7.717-8.908-10.954l-3.082-2.684l-1.767-1.651l-2.301-1.345
		c-17.064-9.936-35.308-9.936-41.302-9.936h-0.482l-3.811,0.054l-2.474,0.064l-2.42,0.361c-9.731,1.439-16.839,2.496-23.37,4.592
		c-10.49,3.688-15.779,6.105-15.779,6.105l-15.779,7.202c9.158-40.456,21.111-140.737-53.054-236.979
		C359.021,173.516,46.933,550.535,46.933,1000.681c0,525.665,425.466,951.9,950.808,953.279v-98.699
		c2.222,0.381,4.963,0.232,7.237,0.568c20.421,3.099,41.87,5.21,64.706,5.21c22.608,0,44.09-2.076,64.147-5.111
		c2.141-0.316,4.758-0.178,6.852-0.529l0.022,88.244c459.919-67.912,812.911-464.165,812.911-942.963
		C1953.615,474.165,1526.79,47.347,1000.274,47.347z M947.351,564.297c6.382-4.157,13.488-7.796,18.809-12.067
		c5.267-4.192,10.833-8.161,14.323-12.111c4.38-4.192,4.647-7.657,6.96-8.903c-2.988-5.764-0.868-5.25-5.813-8.161
		c-3.673-2.175-8.554-2.758-12.655-3.633c-9.313-0.885-14.635-1.389-14.635-1.389s4.659-1.923,13.607-4.073
		c4.958-0.544,11.382-1.878,19.571-0.727c7.462-0.697,19.998,7.286,22.074,11.058c7.857,17.727-1.273,29.828-12.279,42.622
		c-5.942,6.1-12.771,11.923-20.747,17.237c-7.61,4.751-17.887,10.603-25.876,14.247c-8.446,3.633-20.554,8.399-30.906,10.999
		c-10.589,3.193-22.075,5.027-34.344,5.794c-11.55,1.246-26.034-0.227-38.313-5.26c-3.008-1.631-5.826-3.401-8.297-5.161
		c-7.054-6.565-2.795-4.197-4.733-6.698c-0.897-2.694-2.333-4.879-1.337-9.412c0.396-8.725,5.47-13.545,9.85-16.891
		c3.799-3.945,7.944-6.678,11.711-8.73c7.249-4.222,11.649-6.169,11.649-6.169s-1.456,3.623-4.454,9.16
		c-3.384,4.217-6.145,16.1-4.56,19.472c-1.414,0.613,1.092,3.272,3.265,5.66c0,0,4.303,5.507,0.964,0.554
		c0.897,0.015,1.508,0.054,1.958,0.252c3.683-0.099,8.898-0.099,16.412-1.532c7.012-0.954,14.837-3.594,22.663-6.041
		c8.512-2.561,14.153-5.082,22.794-9.046C934.332,571.46,939.728,568.43,947.351,564.297z M964.126,400.297
		c5.203,2.378,11.894,3.001,15.92,8.3c2.343,1.468,5.331,5.65,6.498,11.765c1.144,9.6-1.819,16.793-6.861,23.965
		c-9.647,14.039-25.416,25.859-43.326,35.646c-10.878,5.304-16.852,8.132-28.874,12.428c-10.727,4.207-21.4,6.412-32.779,8.428
		c-11.122,2.061-22.856,2.828-35.221,1.31c-11.884-1.152-25.555-5.092-31.432-14.504c-3.137-3.544-2.289-13.392,0.858-17.964
		c3.843-4.227,6.263-7.969,9.805-10.297c6.767-4.815,10.92-7.059,10.92-7.059s-0.984,3.757-3.221,9.452
		c-1.488,2.788-0.932,6.436-1.52,10.05c1.99,3.544,0.032,3.722,5.672,9.249c0.91,0.02,5.213,1.34,11.296,0.376
		c5.781-0.425,13.349-2.422,20.896-4.439c7.474-1.898,15.727-5.24,22.749-8.077c6.305-2.185,17.247-7.771,23.006-10.91
		c15.085-7.43,27.791-16.723,37.095-25.325c4.078-4.232,7.89-9.036,9.133-11.281c1.016,0.119,2.803-1.335,0.18-4.647
		c1.639-0.46-1.765-1.092-2.012-2.264c-3.339-1.305-9.024-3.658-14.548-3.767c-5.524-0.465-10.994-1.206-15.843-0.549
		c-9.508,0.509-15.129,0.43-15.129,0.43s4.402-2.294,12.452-5.655C927.545,402.536,942.18,396.031,964.126,400.297z
		 M752.585,381.675c3.233-4.335,5.749-7.82,8.683-10.272c6.263-4.765,10.159-6.98,10.159-6.98s-0.63,3.648-2.291,9.116
		c-0.791,2.719-0.373,6.169-0.353,9.471c1.649,2.205,1.607,3.767,7.205,8.77c0.611-2.225,5.312,0.667,11.251-0.999
		c5.601-0.514,12.793-2.521,19.966-4.439c7.141-1.74,14.882-5.077,21.711-7.672c6.199-2.15,15.673-7,22.065-10.159
		c14.217-7.173,26.85-15.596,36.558-23.708c4.476-4.118,9.165-8.211,11.113-11.651c1.745-2.353,1.466-2.571,2.847-3.253
		c2.323-0.044-3.03-6.258-0.781-4.79c-1.446-1.646-4.968-3.792-9.741-5.354c-4.884-0.697-9.56-1.839-14.133-1.888
		c-9.111-0.094-14.452-0.524-14.452-0.524s4.444-1.997,12.472-4.835c4.014-1.295,10.223-2.16,17.556-3.253
		c7.526-0.178,17.398-0.089,27.033,5.527c5.833,5.477,5.621,3.811,8.5,8.977c2.195,4.597,2.912,9.852,2.054,12.981
		c-0.63,7.672-4.088,14.583-9.387,20.861c-9.872,12.897-25.34,23.733-42.308,33.14c-9.936,4.528-16.508,7.642-27.878,11.587
		c-10.277,3.836-20.394,6.011-31.304,7.85c-10.608,1.943-21.753,2.64-33.422,1.33c-11.614-1.167-22.695-3.549-32.072-12.937
		C750.818,394.953,750.22,387.578,752.585,381.675z M802.859,1264.201c5.994-34.485,45.904-66.547,117.439-95.456
		c55.272,2.877,64.362,44.371,65.497,52.637c-0.633,1.384-1.436,3.005-3.737,5.932c-5.428,6.115-16.165,14.187-30.597,20.278
		c-14.185,6.031-30.597,11.38-43.625,13.733c-13.083,2.793-21.808,4.657-21.808,4.657s9.239-0.119,23.103-0.287
		c14.079,0.208,32.856-1.735,51.752-5.26c18.96-3.53,37.298-10.401,49.619-17.756c2.014-1.177,3.683-2.472,5.408-3.732
		c8.68,2.15,16.409,5.235,22.213,10.416c23.649,20.97,20.876,61.09,17.257,78.401c-2.954,2.135-6.273,4.543-10.695,7.751
		c-5.621,3.124-10.93,10.055-16.325,16.61c-4.743,6.757-12.289,13.347-13.683,20.633c-2.482,7.01-4.966,14.014-7.299,20.594
		c-2.452,6.417-0.665,12.907-1.147,18.088c0.151,10.351,0.247,17.257,0.247,17.257s2.613-6.674,6.55-16.674
		c2.484-4.835,2.988-10.762,7.731-16.308c4.442-5.467,9.185-11.3,13.928-17.134c3.725-6.244,11.894-9.724,16.785-14.069
		c5.643-4.044,9.024-7.929,16.98-10.589c8.391-3.584,13.906-5.947,17.653-7.544l124.676-44.001v191.5H929.441v-48.568
		c0-47.792-42.224-80.581-83.503-106.307C822.642,1324.5,797.377,1296.214,802.859,1264.201z M1179.307,1806.97
		c0,3.866-8.008,10.168-25.908,15.532c-31.699,9.501-84.422,12.002-128.285,7.267c-14.645-1.616-28.38-4.078-40.278-7.366
		c-17.524-5.561-25.678-11.894-25.678-15.433v-115.447h220.149V1806.97z M1297.411,1610.635l-103.224,52.375H944.535l-103.18-52.375
		c-8.008-4.059-12.803-9.669-13.532-15.839c-0.771-6.14,2.655-12.171,9.551-16.975l78.92-55.015h306.092l78.965,55.015
		c6.893,4.805,10.277,10.836,9.548,17C1310.128,1600.966,1305.333,1606.577,1297.411,1610.635z"/>
</g>
</svg>
