<?xml version="1.0" encoding="UTF-8" standalone="no"?>
<!-- Created with Inkscape (http://www.inkscape.org/) -->

<svg
   width="210mm"
   height="297mm"
   viewBox="0 0 210 297"
   version="1.1"
   id="svg187"
   inkscape:version="1.1-rc (52f87abb86, 2021-05-02)"
   sodipodi:docname="drawing.svg"
   inkscape:export-filename="C:\Users\aucha\doorgod42\doorgod_site_code\themes\vncnt-hugo\static\img\drawing.png"
   inkscape:export-xdpi="96"
   inkscape:export-ydpi="96"
   xmlns:inkscape="http://www.inkscape.org/namespaces/inkscape"
   xmlns:sodipodi="http://sodipodi.sourceforge.net/DTD/sodipodi-0.dtd"
   xmlns="http://www.w3.org/2000/svg"
   xmlns:svg="http://www.w3.org/2000/svg">
  <sodipodi:namedview
     id="namedview189"
     pagecolor="#ffffff"
     bordercolor="#666666"
     borderopacity="1.0"
     objecttolerance="10.0"
     gridtolerance="10.0"
     guidetolerance="10.0"
     inkscape:pageshadow="2"
     inkscape:pageopacity="0.0"
     inkscape:pagecheckerboard="0"
     inkscape:document-units="mm"
     showgrid="false"
     inkscape:zoom="0.36168631"
     inkscape:cx="145.15341"
     inkscape:cy="189.39064"
     inkscape:window-width="1920"
     inkscape:window-height="1001"
     inkscape:window-x="2391"
     inkscape:window-y="-9"
     inkscape:window-maximized="1"
     inkscape:current-layer="layer1" />
  <defs
     id="defs184" />
  <g
     inkscape:label="Layer 1"
     inkscape:groupmode="layer"
     id="layer1">
    <g
       id="g6"
       transform="matrix(0.26458333,0,0,0.26458333,-176.50694,-170.755)"
       inkscape:export-filename="C:\Users\aucha\doorgod42\doorgod_site_code\themes\vncnt-hugo\static\img\g6.png"
       inkscape:export-xdpi="32.48"
       inkscape:export-ydpi="32.48">
      <path
         d="m 1069.8,935.508 c 11.595,-14.177 32.384,-26.872 48.089,-35.142 16.283,-8.433 27.129,-14.054 27.129,-14.054 0,0 -12.719,3.777 -31.805,9.422 -18.992,5.897 -44.46,14.583 -65.593,29.438 -6.048,3.119 -9.892,7.924 -14.047,12.571 -4.55,4.508 -8.179,9.363 -8.928,15.156 -1.434,5.566 -2.398,10.979 0.128,16.051 1.874,5.087 2.815,10.109 7.119,14.059 1.767,1.849 3.191,3.342 4.817,5.042 l -0.984,0.292 3.811,2.655 c 0.942,0.974 2.054,2.15 2.931,3.06 3.02,1.918 5.653,3.589 7.828,4.963 4.249,2.62 6.54,4.024 6.691,4.123 30.318,21.113 58.067,48.771 63.354,73.878 1.456,6.293 0.022,12.017 -2.205,17.45 -2.825,5.329 -7.944,10.04 -14.239,14.603 l -12.717,6.777 -10.309,3.5 c -7.986,1.552 -16.113,3.154 -24.42,1.631 -16.904,-1.483 -33.187,-11.291 -42.587,-22.324 -4.088,-5.729 -6.903,-11.805 -6.701,-17.406 0.183,-5.265 4.763,-10.302 8.381,-13.046 11.048,-5.823 15.814,-7.346 25.532,-8.621 8.802,-0.924 17.43,0.855 24.87,4.212 15.824,7.109 13.896,24.381 -3.146,36.798 11.142,-3.698 21.368,-9.778 26.709,-18.552 4.807,-8.779 2.291,-20.016 -7.88,-27.895 -9.677,-8.241 -26.281,-12.358 -42.009,-12.255 -15.018,-0.396 -33.358,5.314 -41.868,9.14 -30.928,15.453 -28.348,40.881 -16.595,57.615 12.601,16.985 34.109,32.76 66.246,37.881 15.695,3.154 32.888,1.612 48.282,-1.305 7.645,-1.958 15.782,-4.864 22.46,-7.514 l 16.039,-8.325 c 10.801,-7.099 20.156,-15.413 25.789,-25.29 4.988,-9.857 7.086,-20.248 5.373,-29.873 -2.741,-19.482 -14.731,-36.052 -28.531,-50.793 -9.217,-9.728 -20.866,-17.915 -31.944,-26.432 17.116,-6.654 33.496,-14.009 46.235,-24.099 19.175,-14.267 33.682,-30.817 41.796,-48.282 16.068,-34.969 14.687,-71.199 2.815,-104.992 4.795,34.435 -2.056,69.741 -23.263,99.856 -10.608,15.057 -26.313,27.96 -44.502,38.271 -14.42,8.834 -32.557,14.029 -50.776,18.607 -1.458,-0.88 -2.721,-1.646 -4.434,-2.674 -1.219,-1.394 -2.739,-2.842 -4.773,-4.375 -3.149,-3.188 -7.571,-8.285 -6.308,-13.891 -1.144,-2.847 -0.299,-6.095 1.745,-9.471 1.535,-3.371 2.326,-7.178 6.395,-10.44 z"
         id="path2" />
      <path
         d="m 1000.274,47.347 c -69.318,0 -136.837,7.583 -201.953,21.632 173.615,64.96 503.803,241.364 475.493,637.059 -30.145,422.236 -54.127,537.88 -60.722,563.106 l -111.507,39.349 c 0.685,-22.561 -3.512,-54.184 -28.007,-75.856 -11.904,-10.613 -27.149,-17.895 -45.563,-21.785 -6.594,-25.784 -30.575,-61.297 -87.957,-69.409 12.677,-61.406 37.686,-293.14 -250.506,-476.474 24.492,-3.717 59.179,-7.662 96.178,-7.662 51.216,0 93.35,7.385 125.383,21.948 l 20.757,9.417 c 11.53,5.724 26.39,13.866 43.089,25.933 16.98,11.642 34.559,27.02 46.131,45.237 11.669,17.761 17.472,39.972 4.936,55.247 -5.974,7.227 -16.489,13.248 -30.031,14.573 -19.151,4.924 -29.193,2.432 -41.408,1.256 l -17.836,-6.14 -13.06,-9.729 c -5.514,-7.178 -13.115,-15.107 -11.315,-22.947 0.148,-3.871 -0.601,-7.781 0.116,-11.375 1.928,-3.475 3.747,-6.767 5.46,-9.862 2.313,-6.782 7.558,-11.656 12.944,-15.275 9.818,-7.909 15.426,-12.428 15.426,-12.428 0,0 -6.958,3.742 -19.131,10.292 -6.755,3.099 -13.896,7.435 -18.787,14.38 -7.034,6.273 -12.151,14.133 -12.591,23.99 -3.853,9.521 2.207,20.198 8.018,30.659 4.701,4.815 10,9.758 15.705,14.622 7.924,3.48 16.026,7.039 24.259,10.648 19.558,4.894 44.834,6.308 59.481,2.966 22.062,-0.87 42.597,-11.291 54.233,-23.812 22.717,-26.511 13.681,-54.767 1.809,-76.696 -12.601,-22.502 -31.892,-40.867 -50.679,-55.029 -18.713,-13.92 -38.701,-24.005 -52.125,-30.426 -4.38,-1.913 -7.121,-3.104 -10.161,-4.439 0.707,-8.28 1.552,-22.611 1.456,-40.802 6.36,-2.318 12.504,-4.78 17.418,-6.891 9.538,-4.345 21.069,-10.86 29.581,-16.17 9.368,-6.234 17.482,-12.961 24.739,-20.416 11.058,-12.793 26.647,-30.926 15.332,-56.463 -5.44,-9.981 -25.181,-22.967 -45.264,-23.441 -2.87,-0.287 -5.781,-0.425 -8.693,-0.425 -5.813,0 -10.92,0.583 -15.352,1.157 l -2.012,0.267 -4.753,0.821 c -11.016,2.645 -17.43,5.195 -18.597,5.68 l -5.897,2.437 c -0.311,-1.29 -0.61,-2.575 -0.932,-3.881 5.823,-2.437 11.466,-5.003 18.787,-8.572 24.217,-13.199 41.185,-27.253 51.547,-42.35 7.6,-10.796 10.428,-20.787 9.059,-32.231 -1.018,-5.472 -3.631,-13.901 -10.92,-20.129 -6.659,-7.277 -15.834,-10.332 -20.972,-12.037 l -3.49,-1.592 -5.717,-1.33 c -7.282,-1.424 -14.657,-2.136 -21.904,-2.136 -10.267,0 -18.575,1.414 -25.532,3.095 8.157,-6.421 14.783,-12.966 19.944,-19.719 7.067,-8.33 11.296,-17.796 12.096,-27.539 1.275,-3.925 0.225,-11.785 -3.188,-18.938 -3.052,-5.522 -4.882,-7.717 -8.908,-10.954 l -3.082,-2.684 -1.767,-1.651 -2.301,-1.345 c -17.064,-9.936 -35.308,-9.936 -41.302,-9.936 h -0.482 l -3.811,0.054 -2.474,0.064 -2.42,0.361 c -9.731,1.439 -16.839,2.496 -23.37,4.592 -10.49,3.688 -15.779,6.105 -15.779,6.105 l -15.779,7.202 C 840.772,270.064 852.725,169.783 778.56,73.541 359.021,173.516 46.933,550.535 46.933,1000.681 c 0,525.665 425.466,951.9 950.808,953.279 v -98.699 c 2.222,0.381 4.963,0.232 7.237,0.568 20.421,3.099 41.87,5.21 64.706,5.21 22.608,0 44.09,-2.076 64.147,-5.111 2.141,-0.316 4.758,-0.178 6.852,-0.529 l 0.022,88.244 c 459.919,-67.912 812.911,-464.165 812.911,-942.963 C 1953.615,474.165 1526.79,47.347 1000.274,47.347 Z m -52.923,516.95 c 6.382,-4.157 13.488,-7.796 18.809,-12.067 5.267,-4.192 10.833,-8.161 14.323,-12.111 4.38,-4.192 4.647,-7.657 6.96,-8.903 -2.988,-5.764 -0.868,-5.25 -5.813,-8.161 -3.673,-2.175 -8.554,-2.758 -12.655,-3.633 -9.313,-0.885 -14.635,-1.389 -14.635,-1.389 0,0 4.659,-1.923 13.607,-4.073 4.958,-0.544 11.382,-1.878 19.571,-0.727 7.462,-0.697 19.998,7.286 22.074,11.058 7.857,17.727 -1.273,29.828 -12.279,42.622 -5.942,6.1 -12.771,11.923 -20.747,17.237 -7.61,4.751 -17.887,10.603 -25.876,14.247 -8.446,3.633 -20.554,8.399 -30.906,10.999 -10.589,3.193 -22.075,5.027 -34.344,5.794 -11.55,1.246 -26.034,-0.227 -38.313,-5.26 -3.008,-1.631 -5.826,-3.401 -8.297,-5.161 -7.054,-6.565 -2.795,-4.197 -4.733,-6.698 -0.897,-2.694 -2.333,-4.879 -1.337,-9.412 0.396,-8.725 5.47,-13.545 9.85,-16.891 3.799,-3.945 7.944,-6.678 11.711,-8.73 7.249,-4.222 11.649,-6.169 11.649,-6.169 0,0 -1.456,3.623 -4.454,9.16 -3.384,4.217 -6.145,16.1 -4.56,19.472 -1.414,0.613 1.092,3.272 3.265,5.66 0,0 4.303,5.507 0.964,0.554 0.897,0.015 1.508,0.054 1.958,0.252 3.683,-0.099 8.898,-0.099 16.412,-1.532 7.012,-0.954 14.837,-3.594 22.663,-6.041 8.512,-2.561 14.153,-5.082 22.794,-9.046 9.32,-3.888 14.716,-6.918 22.339,-11.051 z m 16.775,-164 c 5.203,2.378 11.894,3.001 15.92,8.3 2.343,1.468 5.331,5.65 6.498,11.765 1.144,9.6 -1.819,16.793 -6.861,23.965 -9.647,14.039 -25.416,25.859 -43.326,35.646 -10.878,5.304 -16.852,8.132 -28.874,12.428 -10.727,4.207 -21.4,6.412 -32.779,8.428 -11.122,2.061 -22.856,2.828 -35.221,1.31 -11.884,-1.152 -25.555,-5.092 -31.432,-14.504 -3.137,-3.544 -2.289,-13.392 0.858,-17.964 3.843,-4.227 6.263,-7.969 9.805,-10.297 6.767,-4.815 10.92,-7.059 10.92,-7.059 0,0 -0.984,3.757 -3.221,9.452 -1.488,2.788 -0.932,6.436 -1.52,10.05 1.99,3.544 0.032,3.722 5.672,9.249 0.91,0.02 5.213,1.34 11.296,0.376 5.781,-0.425 13.349,-2.422 20.896,-4.439 7.474,-1.898 15.727,-5.24 22.749,-8.077 6.305,-2.185 17.247,-7.771 23.006,-10.91 15.085,-7.43 27.791,-16.723 37.095,-25.325 4.078,-4.232 7.89,-9.036 9.133,-11.281 1.016,0.119 2.803,-1.335 0.18,-4.647 1.639,-0.46 -1.765,-1.092 -2.012,-2.264 -3.339,-1.305 -9.024,-3.658 -14.548,-3.767 -5.524,-0.465 -10.994,-1.206 -15.843,-0.549 -9.508,0.509 -15.129,0.43 -15.129,0.43 0,0 4.402,-2.294 12.452,-5.655 7.705,-2.422 22.34,-8.927 44.286,-4.661 z M 752.585,381.675 c 3.233,-4.335 5.749,-7.82 8.683,-10.272 6.263,-4.765 10.159,-6.98 10.159,-6.98 0,0 -0.63,3.648 -2.291,9.116 -0.791,2.719 -0.373,6.169 -0.353,9.471 1.649,2.205 1.607,3.767 7.205,8.77 0.611,-2.225 5.312,0.667 11.251,-0.999 5.601,-0.514 12.793,-2.521 19.966,-4.439 7.141,-1.74 14.882,-5.077 21.711,-7.672 6.199,-2.15 15.673,-7 22.065,-10.159 14.217,-7.173 26.85,-15.596 36.558,-23.708 4.476,-4.118 9.165,-8.211 11.113,-11.651 1.745,-2.353 1.466,-2.571 2.847,-3.253 2.323,-0.044 -3.03,-6.258 -0.781,-4.79 -1.446,-1.646 -4.968,-3.792 -9.741,-5.354 -4.884,-0.697 -9.56,-1.839 -14.133,-1.888 -9.111,-0.094 -14.452,-0.524 -14.452,-0.524 0,0 4.444,-1.997 12.472,-4.835 4.014,-1.295 10.223,-2.16 17.556,-3.253 7.526,-0.178 17.398,-0.089 27.033,5.527 5.833,5.477 5.621,3.811 8.5,8.977 2.195,4.597 2.912,9.852 2.054,12.981 -0.63,7.672 -4.088,14.583 -9.387,20.861 -9.872,12.897 -25.34,23.733 -42.308,33.14 -9.936,4.528 -16.508,7.642 -27.878,11.587 -10.277,3.836 -20.394,6.011 -31.304,7.85 -10.608,1.943 -21.753,2.64 -33.422,1.33 -11.614,-1.167 -22.695,-3.549 -32.072,-12.937 -2.818,-3.618 -3.416,-10.993 -1.051,-16.896 z m 50.274,882.526 c 5.994,-34.485 45.904,-66.547 117.439,-95.456 55.272,2.877 64.362,44.371 65.497,52.637 -0.633,1.384 -1.436,3.005 -3.737,5.932 -5.428,6.115 -16.165,14.187 -30.597,20.278 -14.185,6.031 -30.597,11.38 -43.625,13.733 -13.083,2.793 -21.808,4.657 -21.808,4.657 0,0 9.239,-0.119 23.103,-0.287 14.079,0.208 32.856,-1.735 51.752,-5.26 18.96,-3.53 37.298,-10.401 49.619,-17.756 2.014,-1.177 3.683,-2.472 5.408,-3.732 8.68,2.15 16.409,5.235 22.213,10.416 23.649,20.97 20.876,61.09 17.257,78.401 -2.954,2.135 -6.273,4.543 -10.695,7.751 -5.621,3.124 -10.93,10.055 -16.325,16.61 -4.743,6.757 -12.289,13.347 -13.683,20.633 -2.482,7.01 -4.966,14.014 -7.299,20.594 -2.452,6.417 -0.665,12.907 -1.147,18.088 0.151,10.351 0.247,17.257 0.247,17.257 0,0 2.613,-6.674 6.55,-16.674 2.484,-4.835 2.988,-10.762 7.731,-16.308 4.442,-5.467 9.185,-11.3 13.928,-17.134 3.725,-6.244 11.894,-9.724 16.785,-14.069 5.643,-4.044 9.024,-7.929 16.98,-10.589 8.391,-3.584 13.906,-5.947 17.653,-7.544 l 124.676,-44.001 v 191.5 h -281.34 v -48.568 c 0,-47.792 -42.224,-80.581 -83.503,-106.307 -23.296,-14.503 -48.561,-42.789 -43.079,-74.802 z m 376.448,542.769 c 0,3.866 -8.008,10.168 -25.908,15.532 -31.699,9.501 -84.422,12.002 -128.285,7.267 -14.645,-1.616 -28.38,-4.078 -40.278,-7.366 -17.524,-5.561 -25.678,-11.894 -25.678,-15.433 v -115.447 h 220.149 z m 118.104,-196.335 -103.224,52.375 H 944.535 l -103.18,-52.375 c -8.008,-4.059 -12.803,-9.669 -13.532,-15.839 -0.771,-6.14 2.655,-12.171 9.551,-16.975 l 78.92,-55.015 h 306.092 l 78.965,55.015 c 6.893,4.805 10.277,10.836 9.548,17 -0.771,6.145 -5.566,11.756 -13.488,15.814 z"
         id="path4" />
    </g>
  </g>
</svg>
